Coordinates
version=1
nRows=40
nColumns=38
inDegrees=no

Units are S.I. units (second, meters, Newtons, ...)
If the header above contains a line with 'inDegrees', this indicates whether rotational values are in degrees (yes) or radians (no).

endheader
time	pelvis_tilt	pelvis_list	pelvis_rotation	pelvis_tx	pelvis_ty	pelvis_tz	hip_flexion_r	hip_adduction_r	hip_rotation_r	knee_angle_r	ankle_angle_r	subtalar_angle_r	mtp_angle_r	hip_flexion_l	hip_adduction_l	hip_rotation_l	knee_angle_l	ankle_angle_l	subtalar_angle_l	mtp_angle_l	lumbar_extension	lumbar_bending	lumbar_rotation	arm_flex_r	arm_add_r	arm_rot_r	elbow_flex_r	pro_sup_r	wrist_flex_r	wrist_dev_r	arm_flex_l	arm_add_l	arm_rot_l	elbow_flex_l	pro_sup_l	wrist_flex_l	wrist_dev_l
1.48	-0.713219	1.48216	-0.844362	0.753014	-0.406428	0.962524	0.116468	0.0891381	-0.15997	0.325734	0.0931502	0	0	0.443364	-0.0885996	-0.000504364	1.36311	-0.0761897	0	0	-0.13067	0.0754007	-0.0785457	-0.0542313	-0.149213	-0.0639349	0.342352	1.32859	0	0	-0.17032	-0.470006	0.654284	0.734665	0.619103	0	0
1.49	-0.65984	1.48283	-0.908538	0.751696	-0.417295	0.964257	0.0921658	0.0877598	-0.149582	0.309288	0.0960682	0	0	0.459178	-0.0827417	-0.00390876	1.33729	-0.0623001	0	0	-0.136496	0.0707449	-0.0698418	-0.0496876	-0.150237	-0.0618671	0.342861	1.32884	0	0	-0.169798	-0.468298	0.648211	0.734263	0.626741	0	0
1.5	-0.609266	1.48293	-0.969276	0.750445	-0.428166	0.965752	0.0675166	0.0864705	-0.139773	0.291878	0.0985951	0	0	0.472823	-0.07746	-0.00708263	1.30734	-0.0452821	0	0	-0.142248	0.066417	-0.0620686	-0.0454358	-0.150999	-0.0618046	0.343716	1.33065	0	0	-0.16851	-0.467065	0.645537	0.732726	0.634328	0	0
1.51	-0.567098	1.4829	-1.02083	0.749266	-0.439016	0.966951	0.0433986	0.0853617	-0.130538	0.274385	0.101306	0	0	0.485149	-0.073085	-0.0103618	1.27351	-0.026792	0	0	-0.147664	0.0626192	-0.0558312	-0.0413436	-0.151459	-0.0641363	0.345348	1.33472	0	0	-0.167027	-0.466581	0.645998	0.731025	0.638837	0	0
1.52	-0.532818	1.4826	-1.0638	0.748132	-0.449906	0.967867	0.0197692	0.0846311	-0.121269	0.257554	0.104387	0	0	0.495785	-0.070003	-0.0142863	1.23586	-0.00776492	0	0	-0.152684	0.0593392	-0.0505985	-0.0375891	-0.151778	-0.0675979	0.347164	1.33948	0	0	-0.165575	-0.466474	0.648404	0.729026	0.641063	0	0
1.53	-0.482025	1.48245	-1.12031	0.746101	-0.460836	0.968538	-0.00375997	0.0854395	-0.109375	0.242199	0.106154	0	0	0.505995	-0.080454	-0.0170735	1.19294	0.0175352	0	0	-0.15762	0.0527658	-0.0472167	-0.0346623	-0.150313	-0.0708017	0.348489	1.34493	0	0	-0.163477	-0.468519	0.652392	0.72645	0.641691	0	0
1.54	-0.471668	1.48255	-1.13785	0.745027	-0.471844	0.968804	-0.0239816	0.0857369	-0.101639	0.229126	0.110876	0	0	0.513503	-0.0800492	-0.0235536	1.14706	0.0339701	0	0	-0.160337	0.0509382	-0.0442875	-0.0306589	-0.151276	-0.0718908	0.348736	1.34937	0	0	-0.163289	-0.468552	0.65527	0.724457	0.641898	0	0
1.55	-0.452437	1.48081	-1.16448	0.743944	-0.482892	0.969056	-0.0470261	0.0858435	-0.0917151	0.214763	0.115112	0	0	0.51503	-0.0804777	-0.0327979	1.0951	0.0500382	0	0	-0.165358	0.0489456	-0.0409669	-0.0267265	-0.152	-0.0756128	0.349384	1.35641	0	0	-0.162487	-0.4689	0.659602	0.721881	0.642997	0	0
1.56	-0.437943	1.47848	-1.18615	0.742857	-0.494011	0.969104	-0.0706688	0.0861363	-0.0824193	0.200247	0.119224	0	0	0.513403	-0.0820589	-0.0449895	1.03862	0.0662301	0	0	-0.170715	0.0473346	-0.0373958	-0.0226353	-0.151795	-0.0869913	0.348635	1.37167	0	0	-0.161186	-0.469842	0.665894	0.719578	0.643826	0	0
1.57	-0.432765	1.47619	-1.19801	0.741793	-0.505224	0.968894	-0.0943372	0.0868609	-0.0738943	0.185642	0.123831	0	0	0.509729	-0.0846422	-0.0596749	0.978194	0.0813827	0	0	-0.175345	0.0462799	-0.0345388	-0.0191112	-0.151805	-0.0966848	0.347941	1.38566	0	0	-0.16064	-0.47082	0.67163	0.71739	0.64308	0	0
1.58	-0.433475	1.47395	-1.20393	0.740692	-0.516566	0.968442	-0.117052	0.0875766	-0.0645482	0.172637	0.129041	0	0	0.50398	-0.0880235	-0.0776111	0.914658	0.0957334	0	0	-0.179578	0.0456057	-0.0321565	-0.0166211	-0.151927	-0.10594	0.349316	1.39949	0	0	-0.161083	-0.471483	0.675121	0.714952	0.643875	0	0
1.59	-0.437107	1.47153	-1.20613	0.739701	-0.528023	0.967804	-0.139629	0.0882921	-0.0566116	0.160486	0.134486	0	0	0.495628	-0.0910666	-0.0977156	0.847644	0.109133	0	0	-0.18351	0.045233	-0.0306432	-0.0136183	-0.151736	-0.114925	0.34868	1.41347	0	0	-0.161999	-0.472214	0.678452	0.712425	0.645596	0	0
1.6	-0.456634	1.46887	-1.19818	0.739345	-0.539668	0.9669	-0.16207	0.0847151	-0.0556604	0.147041	0.143376	0	0	0.484474	-0.0837286	-0.115937	0.778274	0.114042	0	0	-0.186931	0.0474522	-0.0260631	-0.00926015	-0.152945	-0.124788	0.346635	1.42728	0	0	-0.164759	-0.471268	0.682253	0.710409	0.646415	0	0
1.61	-0.453314	1.46653	-1.20613	0.738426	-0.551539	0.965864	-0.184566	0.0837217	-0.0519152	0.136155	0.150127	0	0	0.471433	-0.0860296	-0.143056	0.704205	0.124872	0	0	-0.190205	0.0460321	-0.0252584	-0.00610683	-0.151575	-0.136293	0.342169	1.44275	0	0	-0.166404	-0.472613	0.68595	0.708502	0.645074	0	0
1.62	-0.44602	1.46449	-1.21728	0.737689	-0.563581	0.964645	-0.205487	0.0816029	-0.049582	0.128812	0.159027	0	0	0.456704	-0.0866276	-0.174389	0.62796	0.133793	0	0	-0.192913	0.0440947	-0.025599	-0.00310048	-0.15038	-0.145143	0.336967	1.45521	0	0	-0.168843	-0.473682	0.688773	0.706329	0.643293	0	0
1.63	-0.444149	1.46483	-1.22171	0.737258	-0.57574	0.962996	-0.220993	0.0787524	-0.0496335	0.12691	0.170288	0	0	0.443816	-0.0846211	-0.206665	0.551264	0.141688	0	0	-0.1929	0.0423097	-0.0268469	-0.00238837	-0.149748	-0.15063	0.335397	1.45992	0	0	-0.171629	-0.473758	0.689582	0.703244	0.64325	0	0
1.64	-0.44523	1.46699	-1.22165	0.737134	-0.588004	0.960975	-0.232726	0.0755736	-0.0511544	0.128407	0.18171	0	0	0.433033	-0.0797198	-0.23836	0.476233	0.150189	0	0	-0.190719	0.0406372	-0.0291175	-0.00283087	-0.149396	-0.154814	0.335038	1.46233	0	0	-0.174637	-0.473288	0.689663	0.699947	0.64304	0	0
1.65	-0.423179	1.46927	-1.24444	0.737207	-0.600569	0.958945	-0.245487	0.0697395	-0.0537517	0.130288	0.193293	0	0	0.41854	-0.0695346	-0.269805	0.397671	0.156951	0	0	-0.188855	0.03663	-0.0315043	-0.00380927	-0.148682	-0.159324	0.333921	1.46502	0	0	-0.177656	-0.472519	0.689412	0.69568	0.642717	0	0
1.66	-0.368851	1.47455	-1.3001	0.737618	-0.612621	0.957555	-0.251943	0.0588866	-0.0579031	0.138407	0.205514	0	0	0.399874	-0.051744	-0.276282	0.300467	0.144438	0	0	-0.189031	0.0239027	-0.046603	0.00930083	-0.144823	-0.150703	0.318753	1.46932	0	0	-0.193798	-0.469291	0.661094	0.694643	0.64531	0	0
1.67	-0.340156	1.476	-1.33001	0.738298	-0.625905	0.955238	-0.262331	0.0514386	-0.0651343	0.148182	0.221661	0	0	0.379093	-0.0323376	-0.296896	0.222232	0.155642	0	0	-0.186648	0.0208646	-0.0487255	0.00797315	-0.146064	-0.149257	0.315348	1.47066	0	0	-0.199384	-0.464605	0.652889	0.688788	0.649731	0	0
1.68	-0.264375	1.47676	-1.4057	0.739011	-0.639181	0.953278	-0.273045	0.0397716	-0.0759386	0.160289	0.23784	0	0	0.347073	-0.0058458	-0.275724	0.120144	0.142053	0	0	-0.186329	0.0129479	-0.0517978	0.00698661	-0.145362	-0.149698	0.311187	1.47085	0	0	-0.2037	-0.460853	0.644387	0.681395	0.661102	0	0
1.69	-0.214163	1.4779	-1.45729	0.739449	-0.652761	0.951128	-0.281715	0.0304993	-0.0846836	0.174578	0.252338	0	0	0.314242	0.0154698	-0.236265	0.0210376	0.122154	0	0	-0.183852	0.0071127	-0.0523422	0.00458404	-0.144425	-0.151739	0.307546	1.46838	0	0	-0.208188	-0.458245	0.640943	0.675798	0.663411	0	0
1.7	-0.212003	1.47065	-1.45187	0.739479	-0.665563	0.949771	-0.316999	0.0408363	-0.0627107	0.148189	0.233827	0	0	0.306785	0.018552	-0.196742	0	0.111206	0	0	-0.191154	0.00653884	-0.0573192	0.00268865	-0.141083	-0.155538	0.304611	1.46637	0	0	-0.208895	-0.458018	0.639097	0.670129	0.662276	0	0
1.71	-0.211828	1.46881	-1.452	0.739735	-0.679235	0.947591	-0.33092	0.038983	-0.0617067	0.155638	0.237469	0	0	0.306518	0.0260861	-0.195825	0	0.134211	0	0	-0.191322	0.00583074	-0.057119	-0.000110496	-0.13982	-0.159064	0.302464	1.46308	0	0	-0.214033	-0.456005	0.633282	0.667862	0.661196	0	0
1.72	-0.199445	1.46956	-1.46515	0.739312	-0.692176	0.945668	-0.333003	0.0347983	-0.0679445	0.180756	0.248155	0	0	0.310976	0.0249872	-0.174504	0	0.1271	0	0	-0.19016	0.00185096	-0.0552406	-0.000939747	-0.136199	-0.161962	0.297899	1.45802	0	0	-0.217852	-0.456235	0.627561	0.665935	0.660502	0	0
1.73	-0.1836	1.47346	-1.4847	0.73906	-0.706023	0.943542	-0.328509	0.0275163	-0.0780722	0.213259	0.261675	0	0	0.314881	0.0285416	-0.173663	0	0.127607	0	0	-0.184351	-0.00221714	-0.0512741	-0.00304727	-0.133473	-0.163782	0.292484	1.4527	0	0	-0.22419	-0.455525	0.621421	0.665392	0.659256	0	0
1.74	-0.156446	1.47904	-1.51936	0.738812	-0.721015	0.941311	-0.321366	0.0166676	-0.0880266	0.248932	0.275004	0	0	0.315481	0.0366174	-0.191205	0	0.137984	0	0	-0.174641	-0.00699857	-0.0441762	-0.00756313	-0.131667	-0.164703	0.287191	1.44831	0	0	-0.233739	-0.453998	0.614689	0.666411	0.656682	0	0
1.75	-0.121708	1.48171	-1.56256	0.738387	-0.735856	0.939777	-0.31718	-0.00279172	-0.106446	0.284946	0.292245	0	0	0.321015	0.0361565	-0.202207	0.0229055	0.138416	0	0	-0.168568	-0.0128914	-0.0351858	-0.0119193	-0.128805	-0.167129	0.282635	1.44342	0	0	-0.242283	-0.453616	0.608049	0.668559	0.653271	0	0
1.76	-0.0354359	1.48702	-1.6519	0.738708	-0.749904	0.937753	-0.30355	-0.0198027	-0.117163	0.331907	0.303387	0	0	0.340199	0.0463608	-0.153167	0.0874757	0.235694	0	0	-0.160603	-0.0218064	-0.029569	-0.0157851	-0.126095	-0.17061	0.278613	1.4379	0	0	-0.248498	-0.453674	0.602596	0.670149	0.650003	0	0
1.77	-0.0339599	1.48675	-1.66562	0.737011	-0.765446	0.93599	-0.299723	-0.0289321	-0.112059	0.372163	0.304795	0	0	0.365888	0.0287227	-0.234995	0.16294	0.171446	0	0	-0.154311	-0.025756	-0.0149829	-0.0219165	-0.122837	-0.172671	0.272987	1.43142	0	0	-0.261465	-0.455789	0.594804	0.67632	0.645516	0	0
1.78	0.0544011	1.49554	-1.76738	0.735893	-0.780618	0.933172	-0.274531	-0.0439765	-0.0967675	0.432185	0.308243	0	0	0.392356	0.0239473	-0.252997	0.230602	0.189127	0	0	-0.137089	-0.0348817	-2.87796e-05	-0.0285139	-0.12042	-0.173747	0.267605	1.42464	0	0	-0.276154	-0.457812	0.587242	0.684007	0.638474	0	0
1.79	0.288986	1.50907	-2.01001	0.736044	-0.795621	0.929378	-0.223145	-0.0835336	-0.143801	0.529839	0.320904	0	0	0.423221	0.0387663	-0.213781	0.298163	0.303499	0	0	-0.111387	-0.0481545	0.00839567	-0.0370419	-0.118416	-0.177376	0.266759	1.41972	0	0	-0.292786	-0.459609	0.579255	0.69228	0.631695	0	0
1.8	0.404207	1.51629	-2.13212	0.735816	-0.811592	0.926857	-0.197726	-0.098109	-0.140247	0.587996	0.305765	0	0	0.443381	0.0368285	-0.223897	0.346283	0.308431	0	0	-0.0923563	-0.0523207	0.0151643	-0.0463301	-0.116959	-0.181535	0.266848	1.41567	0	0	-0.311042	-0.459894	0.5704	0.698492	0.625319	0	0
1.81	0.541863	1.52234	-2.2749	0.735815	-0.827156	0.924732	-0.168226	-0.111177	-0.130986	0.648884	0.277536	0	0	0.461273	0.0357088	-0.230324	0.384677	0.285536	0	0	-0.07522	-0.0561851	0.0196156	-0.0545247	-0.115326	-0.18531	0.269241	1.41155	0	0	-0.328197	-0.459973	0.560672	0.7048	0.615281	0	0
1.82	0.554866	1.51647	-2.29482	0.73502	-0.842656	0.924472	-0.147491	-0.129086	-0.125516	0.713811	0.234234	0	0	0.45617	0.0283079	-0.27152	0.387367	0.119095	0	0	-0.073568	-0.0637919	0.0257474	-0.0603284	-0.112204	-0.184353	0.273037	1.40877	0	0	-0.341524	-0.463459	0.556521	0.711848	0.601451	0	0
1.83	0.829747	1.51392	-2.55965	0.737126	-0.856571	0.923118	-0.107085	-0.152956	-0.125037	0.787526	0.186725	0	0	0.481306	0.0541829	-0.221329	0.450382	0.232161	0	0	-0.0621534	-0.0768889	0.016013	-0.0630255	-0.11073	-0.180208	0.275736	1.40867	0	0	-0.348583	-0.466812	0.559804	0.71504	0.594584	0	0
1.84	0.832539	1.50855	-2.56133	0.736584	-0.871178	0.923081	-0.0805176	-0.161592	-0.106038	0.852243	0.122922	0	0	0.484848	0.0479688	-0.250436	0.474442	0.104127	0	0	-0.0622576	-0.0845697	0.0155205	-0.0667457	-0.108677	-0.167237	0.279134	1.40619	0	0	-0.357357	-0.477209	0.570453	0.727415	0.575043	0	0
1.85	0.867096	1.50224	-2.58908	0.737227	-0.885177	0.92289	-0.0498795	-0.17248	-0.0922889	0.918704	0.0560179	0	0	0.492098	0.057313	-0.238622	0.5167	0.101351	0	0	-0.0634484	-0.0924605	0.0102631	-0.0698147	-0.108673	-0.155904	0.283094	1.39787	0	0	-0.362389	-0.487099	0.583076	0.739472	0.554255	0	0
1.86	0.980648	1.49513	-2.69699	0.737052	-0.899158	0.92147	-0.0198433	-0.178869	-0.0682107	0.967328	-0.0108357	0	0	0.502176	0.0682568	-0.234471	0.55441	0.0973396	0	0	-0.0578761	-0.105729	0.00571241	-0.0750478	-0.106946	-0.147798	0.288532	1.39075	0	0	-0.373583	-0.50223	0.588969	0.760764	0.543122	0	0
1.87	0.98527	1.48855	-2.69492	0.737362	-0.913223	0.921225	-0.00236802	-0.181642	-0.0496351	1.01141	-0.0661743	0	0	0.497231	0.0771449	-0.232558	0.577913	0.0924252	0	0	-0.0592096	-0.113207	0.000109155	-0.0786303	-0.108259	-0.137561	0.291771	1.38269	0	0	-0.381077	-0.513007	0.594581	0.775337	0.536599	0	0
